<?xml version="1.0" encoding="UTF-8"?>
<svg xmlns="http://www.w3.org/2000/svg" xmlns:xlink="http://www.w3.org/1999/xlink" width="16pt" height="16pt" viewBox="0 0 16 16" version="1.1">
<g id="surface1">
<path style=" stroke:none;fill-rule:nonzero;fill:rgb(0%,0%,0%);fill-opacity:1;" d="M 14.757812 6.121094 L 12.664062 5.402344 C 12.0625 5.195312 11.617188 4.75 11.472656 4.207031 L 10.972656 2.316406 C 10.609375 0.949219 8.578125 0.53125 7.535156 1.609375 L 6.09375 3.101562 C 5.679688 3.53125 5.046875 3.753906 4.398438 3.703125 L 2.152344 3.527344 C 0.527344 3.402344 -0.5625 4.933594 0.308594 6.117188 L 1.515625 7.757812 C 1.859375 8.226562 1.914062 8.8125 1.660156 9.324219 L 0.769531 11.105469 C 0.125 12.394531 1.484375 13.757812 3.066406 13.414062 L 5.253906 12.9375 C 5.882812 12.796875 6.546875 12.9375 7.035156 13.300781 L 8.734375 14.578125 C 9.964844 15.503906 11.890625 14.816406 12 13.414062 L 12.144531 11.480469 C 12.1875 10.925781 12.546875 10.421875 13.101562 10.136719 L 15.039062 9.148438 C 16.441406 8.429688 16.277344 6.640625 14.757812 6.121094 Z M 5 8 C 4.449219 8 4 7.550781 4 7 C 4 6.449219 4.449219 6 5 6 C 5.550781 6 6 6.449219 6 7 C 6 7.550781 5.550781 8 5 8 Z M 9 11 C 8.449219 11 8 10.550781 8 10 C 8 9.449219 8.449219 9 9 9 C 9.550781 9 10 9.449219 10 10 C 10 10.550781 9.550781 11 9 11 Z M 9.5 7 C 9.222656 7 9 6.777344 9 6.5 C 9 6.222656 9.222656 6 9.5 6 C 9.777344 6 10 6.222656 10 6.5 C 10 6.777344 9.777344 7 9.5 7 Z M 9.5 7 "/>
</g>
</svg>
